<?xml version="1.0" encoding="utf-8"?>
<!-- Generator: Adobe Illustrator 16.0.0, SVG Export Plug-In . SVG Version: 6.00 Build 0)  -->
<!DOCTYPE svg PUBLIC "-//W3C//DTD SVG 1.1//EN" "http://www.w3.org/Graphics/SVG/1.1/DTD/svg11.dtd">
<svg version="1.1" id="Layer_1" xmlns="http://www.w3.org/2000/svg" xmlns:xlink="http://www.w3.org/1999/xlink" x="0px" y="0px"
	 width="841.92px" height="595.5px" viewBox="0 0 841.92 595.5" enable-background="new 0 0 841.92 595.5" xml:space="preserve">
<polygon fill="#7ED957" points="615.21,595.5 841.92,397.622 841.92,595.323 "/>
<g>
	
		<line fill="none" stroke="#B62323" stroke-width="2.4124" stroke-linecap="round" x1="92.815" y1="500.428" x2="248.775" y2="500.428"/>
</g>
<g>
	<defs>
		<rect id="SVGID_1_" x="759.343" y="28.5" width="56.234" height="56.233"/>
	</defs>
	<clipPath id="SVGID_2_">
		<use xlink:href="#SVGID_1_"  overflow="visible"/>
	</clipPath>
	<rect x="753.72" y="22.877" clip-path="url(#SVGID_2_)" fill="#FFFFFF" width="67.48" height="67.48"/>
	<rect x="753.72" y="22.877" clip-path="url(#SVGID_2_)" fill="#FFFFFF" width="67.48" height="67.48"/>
	<rect x="753.72" y="22.877" clip-path="url(#SVGID_2_)" fill="#5271FF" width="67.48" height="67.48"/>
	<path clip-path="url(#SVGID_2_)" fill="#FFFFFF" d="M769.903,47.158l1.082,3.684h-2.166L769.903,47.158z M767.628,54.797
		l0.555-1.855h3.439l0.557,1.855h2.572l-3.535-10.334h-2.627l-3.535,10.334H767.628z"/>
	<path clip-path="url(#SVGID_2_)" fill="#FFFFFF" d="M777.46,54.797v-4.442c0-0.69,0.094-1.043,0.297-1.287
		c0.15-0.189,0.395-0.284,0.705-0.284c0.664,0,1.002,0.297,1.002,1.151v4.862h2.275v-4.442c0-0.61,0.068-1.03,0.299-1.3
		c0.148-0.176,0.393-0.271,0.717-0.271c0.637,0,0.977,0.297,0.977,1.151v4.862h2.275v-5.065c0-1.666-0.771-2.777-2.506-2.777
		c-1.043,0-1.68,0.407-2.127,1.111c-0.271-0.732-0.936-1.111-1.951-1.111c-0.758,0-1.475,0.271-1.963,0.989v-0.826h-2.275v7.679
		H777.46z"/>
	<path clip-path="url(#SVGID_2_)" fill="#FFFFFF" d="M789.378,54.797v-3.237c0-1.043,0.176-1.652,0.568-2.032
		c0.271-0.257,0.664-0.406,1.301-0.406h0.434v-2.167h-0.34c-0.813,0-1.449,0.217-1.963,0.989v-0.826h-2.275v7.679H789.378z"/>
	<path clip-path="url(#SVGID_2_)" fill="#FFFFFF" d="M795.038,54.959c0.922,0,1.504-0.297,1.965-0.988v0.826h2.275v-7.679h-2.275
		v4.32c0,0.636-0.082,1.029-0.285,1.3c-0.203,0.258-0.514,0.393-1.016,0.393c-0.393,0-0.664-0.095-0.84-0.285
		c-0.229-0.244-0.324-0.65-0.324-1.408v-4.32h-2.275v4.293c0,1.247,0.055,1.693,0.297,2.221
		C792.954,54.513,793.78,54.959,795.038,54.959z"/>
	<path clip-path="url(#SVGID_2_)" fill="#FFFFFF" d="M804.614,54.797v-1.842h-0.854c-0.393,0-0.461-0.244-0.461-0.46v-3.602h1.328
		v-1.774H803.3v-2.655h-2.275v2.655h-1.055v1.774h1.055v4.374c0,0.976,0.65,1.531,1.775,1.531H804.614z"/>
	<path clip-path="url(#SVGID_2_)" fill="#FFFFFF" d="M809.667,54.797v-1.842h-0.854c-0.395,0-0.461-0.244-0.461-0.46v-3.602h1.326
		v-1.774h-1.326v-2.655h-2.275v2.655h-1.057v1.774h1.057v4.374c0,0.976,0.65,1.531,1.773,1.531H809.667z"/>
	<path clip-path="url(#SVGID_2_)" fill="#FFFFFF" d="M768.263,64.251h1.857c0.988,0,1.557,0.149,1.557,1.002
		c0,0.379-0.107,0.623-0.313,0.786c-0.311,0.257-0.813,0.311-1.422,0.311h-1.68V64.251z M768.263,60.351h1.273
		c0.705,0,1.057,0.068,1.287,0.244c0.217,0.163,0.326,0.406,0.326,0.745c0,0.677-0.434,1.016-1.287,1.016h-1.6V60.351z
		 M770.255,68.519c0.406,0,1.814,0,2.816-0.759c0.584-0.447,1.029-1.287,1.029-2.303c0-1.259-0.676-2.099-1.908-2.37
		c0.893-0.365,1.381-1.178,1.381-2.316c0-0.731-0.203-1.273-0.609-1.693c-0.568-0.596-1.545-0.895-2.898-0.895h-4.227v10.335
		H770.255z"/>
	<path clip-path="url(#SVGID_2_)" fill="#FFFFFF" d="M777.229,68.519v-4.321c0-0.664,0.094-1.043,0.285-1.3
		c0.203-0.284,0.541-0.393,1.016-0.393c0.379,0,0.65,0.081,0.84,0.284c0.23,0.244,0.324,0.65,0.324,1.409v4.321h2.275v-4.294
		c0-0.948,0-1.558-0.297-2.221c-0.313-0.704-0.963-1.327-2.48-1.327c-0.813,0-1.447,0.217-1.963,0.989v-3.481h-2.275v10.335H777.229
		z"/>
	<path clip-path="url(#SVGID_2_)" fill="#FFFFFF" d="M785.952,66.961c-0.488,0-0.908-0.19-0.908-0.677
		c0-0.217,0.08-0.366,0.203-0.488c0.189-0.176,0.434-0.271,0.936-0.366l1.395-0.271c-0.027,0.839-0.176,1.327-0.799,1.611
		C786.507,66.893,786.208,66.961,785.952,66.961z M785.288,68.681c0.637,0,1.246-0.094,1.693-0.406
		c0.242-0.163,0.42-0.393,0.541-0.69v0.935h2.275v-3.644c0-1.422,0-2.628-0.947-3.44c-0.609-0.528-1.49-0.758-2.385-0.758
		c-1.543,0-3.129,0.799-3.412,2.723h2.262c0.107-0.65,0.609-1.017,1.137-1.017c0.338,0,0.596,0.082,0.771,0.271
		c0.178,0.203,0.285,0.5,0.313,0.894l-1.99,0.352c-0.584,0.108-1.273,0.258-1.816,0.61c-0.555,0.366-0.961,0.935-0.961,1.856
		C782.769,67.909,783.905,68.681,785.288,68.681z"/>
	<path clip-path="url(#SVGID_2_)" fill="#FFFFFF" d="M795.054,68.519v-1.842H794.2c-0.395,0-0.461-0.244-0.461-0.46v-3.603h1.326
		v-1.774h-1.326v-2.655h-2.275v2.655h-1.057v1.774h1.057v4.375c0,0.975,0.65,1.531,1.773,1.531H795.054z"/>
	<path clip-path="url(#SVGID_2_)" fill="#FFFFFF" d="M800.104,68.519v-1.842h-0.854c-0.393,0-0.461-0.244-0.461-0.46v-3.603h1.328
		v-1.774h-1.328v-2.655h-2.275v2.655h-1.057v1.774h1.057v4.375c0,0.975,0.65,1.531,1.775,1.531H800.104z"/>
</g>
<g>
	<g>
		<path fill="#392D19" d="M117.025,517.958l-0.991,3.002h-1.274l3.243-9.544h1.487l3.257,9.544h-1.317l-1.02-3.002H117.025z
			 M120.154,516.995l-0.935-2.747c-0.212-0.623-0.354-1.189-0.496-1.741h-0.028c-0.142,0.566-0.297,1.146-0.481,1.727l-0.935,2.762
			H120.154z"/>
	</g>
	<g>
		<path fill="#392D19" d="M133.624,516.769c-0.071-1.331-0.156-2.932-0.142-4.121h-0.042c-0.326,1.119-0.722,2.309-1.204,3.625
			l-1.685,4.631h-0.935l-1.543-4.545c-0.453-1.346-0.835-2.578-1.104-3.711h-0.028c-0.028,1.189-0.099,2.79-0.184,4.221
			l-0.255,4.092h-1.175l0.666-9.544h1.572l1.628,4.616c0.396,1.176,0.722,2.223,0.963,3.215h0.042
			c0.241-0.963,0.581-2.012,1.005-3.215l1.699-4.616h1.572l0.595,9.544h-1.204L133.624,516.769z"/>
	</g>
	<g>
		<path fill="#392D19" d="M138.966,511.544c0.623-0.128,1.515-0.199,2.365-0.199c1.317,0,2.167,0.241,2.761,0.779
			c0.481,0.425,0.75,1.076,0.75,1.813c0,1.26-0.793,2.096-1.798,2.436v0.043c0.736,0.254,1.175,0.934,1.402,1.926
			c0.312,1.33,0.538,2.251,0.736,2.619h-1.274c-0.156-0.27-0.368-1.09-0.637-2.279c-0.283-1.317-0.793-1.813-1.912-1.855h-1.161
			v4.135h-1.232V511.544z M140.198,515.891h1.26c1.317,0,2.152-0.722,2.152-1.813c0-1.231-0.892-1.771-2.195-1.784
			c-0.595,0-1.02,0.057-1.218,0.113V515.891z"/>
	</g>
	<g>
		<path fill="#392D19" d="M149.66,511.416v5.649c0,2.139,0.949,3.045,2.223,3.045c1.416,0,2.322-0.935,2.322-3.045v-5.649h1.246
			v5.565c0,2.931-1.543,4.135-3.611,4.135c-1.954,0-3.427-1.119-3.427-4.078v-5.622H149.66z"/>
	</g>
	<g>
		<path fill="#392D19" d="M160.594,512.464h-2.903v-1.048h7.066v1.048h-2.917v8.496h-1.246V512.464z"/>
	</g>
	<g>
		<path fill="#392D19" d="M169.207,512.464h-2.903v-1.048h7.066v1.048h-2.917v8.496h-1.246V512.464z"/>
	</g>
	<g>
	</g>
	<g>
		<path fill="#392D19" d="M180.255,511.544c0.538-0.113,1.388-0.199,2.251-0.199c1.232,0,2.025,0.213,2.62,0.694
			c0.496,0.368,0.793,0.935,0.793,1.685c0,0.921-0.609,1.729-1.614,2.096v0.029c0.906,0.227,1.968,0.977,1.968,2.393
			c0,0.821-0.326,1.444-0.807,1.912c-0.666,0.608-1.742,0.892-3.299,0.892c-0.85,0-1.501-0.057-1.912-0.113V511.544z
			 M181.487,515.452h1.119c1.303,0,2.067-0.68,2.067-1.601c0-1.118-0.85-1.558-2.096-1.558c-0.566,0-0.892,0.043-1.09,0.085V515.452
			z M181.487,520.025c0.241,0.042,0.595,0.057,1.034,0.057c1.274,0,2.45-0.468,2.45-1.854c0-1.303-1.119-1.842-2.464-1.842h-1.02
			V520.025z"/>
	</g>
	<g>
		<path fill="#392D19" d="M191.034,511.416v3.993h4.616v-3.993h1.246v9.544h-1.246v-4.475h-4.616v4.475h-1.232v-9.544H191.034z"/>
	</g>
	<g>
		<path fill="#392D19" d="M202.153,517.958l-0.991,3.002h-1.274l3.243-9.544h1.487l3.257,9.544h-1.317l-1.02-3.002H202.153z
			 M205.282,516.995l-0.935-2.747c-0.212-0.623-0.354-1.189-0.496-1.741h-0.028c-0.142,0.566-0.297,1.146-0.481,1.727l-0.935,2.762
			H205.282z"/>
	</g>
	<g>
		<path fill="#392D19" d="M212.521,512.464h-2.903v-1.048h7.066v1.048h-2.917v8.496h-1.246V512.464z"/>
	</g>
	<g>
		<path fill="#392D19" d="M221.132,512.464h-2.903v-1.048h7.066v1.048h-2.917v8.496h-1.246V512.464z"/>
	</g>
	<g>
		<path fill="#392D19" d="M137.355,530.892h5.14v1.033h-3.908v3.172h3.611v1.02h-3.611v4.319h-1.232V530.892z"/>
	</g>
	<g>
		<path fill="#392D19" d="M153.656,535.564c0,3.285-1.997,5.026-4.432,5.026c-2.521,0-4.291-1.953-4.291-4.842
			c0-3.031,1.883-5.014,4.432-5.014C151.971,530.735,153.656,532.732,153.656,535.564z M146.25,535.72
			c0,2.039,1.104,3.866,3.044,3.866c1.954,0,3.059-1.798,3.059-3.965c0-1.897-0.991-3.88-3.044-3.88
			C147.27,531.741,146.25,533.624,146.25,535.72z"/>
	</g>
	<g>
		<path fill="#392D19" d="M157.893,530.892v5.65c0,2.138,0.949,3.044,2.223,3.044c1.416,0,2.322-0.935,2.322-3.044v-5.65h1.246
			v5.564c0,2.932-1.543,4.135-3.611,4.135c-1.954,0-3.427-1.118-3.427-4.078v-5.621H157.893z"/>
	</g>
	<g>
		<path fill="#392D19" d="M167.015,540.436v-9.544h1.345l3.059,4.828c0.708,1.119,1.26,2.125,1.713,3.102l0.028-0.014
			c-0.113-1.275-0.142-2.436-0.142-3.923v-3.993h1.161v9.544h-1.246l-3.03-4.843c-0.666-1.063-1.303-2.152-1.784-3.186l-0.042,0.014
			c0.071,1.203,0.099,2.351,0.099,3.937v4.078H167.015z"/>
	</g>
	<g>
		<path fill="#392D19" d="M178.035,531.019c0.75-0.113,1.643-0.197,2.62-0.197c1.77,0,3.03,0.41,3.866,1.189
			c0.85,0.778,1.345,1.883,1.345,3.426c0,1.559-0.481,2.832-1.374,3.711c-0.892,0.892-2.365,1.373-4.22,1.373
			c-0.878,0-1.614-0.043-2.237-0.113V531.019z M179.267,539.458c0.312,0.057,0.765,0.071,1.246,0.071
			c2.634,0,4.064-1.473,4.064-4.05c0.014-2.252-1.26-3.682-3.866-3.682c-0.637,0-1.119,0.057-1.444,0.127V539.458z"/>
	</g>
	<g>
		<path fill="#392D19" d="M193.444,535.961h-3.71v3.44h4.135v1.034h-5.367v-9.544h5.154v1.033h-3.922v3.017h3.71V535.961z"/>
	</g>
	<g>
		<path fill="#392D19" d="M196.604,531.019c0.623-0.127,1.515-0.197,2.365-0.197c1.317,0,2.167,0.24,2.761,0.778
			c0.481,0.425,0.75,1.076,0.75,1.813c0,1.261-0.793,2.096-1.798,2.436v0.042c0.736,0.256,1.175,0.936,1.402,1.926
			c0.312,1.332,0.538,2.252,0.736,2.62h-1.274c-0.156-0.269-0.368-1.091-0.637-2.28c-0.283-1.316-0.793-1.813-1.912-1.854h-1.161
			v4.135h-1.232V531.019z M197.836,535.366h1.26c1.317,0,2.152-0.723,2.152-1.813c0-1.232-0.892-1.77-2.195-1.784
			c-0.595,0-1.02,0.057-1.218,0.113V535.366z"/>
	</g>
	<g>
		<path fill="#392D19" d="M82.976,550.495c0.538-0.113,1.388-0.197,2.251-0.197c1.232,0,2.025,0.212,2.62,0.693
			c0.496,0.368,0.793,0.935,0.793,1.686c0,0.92-0.609,1.727-1.614,2.096v0.027c0.906,0.227,1.968,0.978,1.968,2.394
			c0,0.821-0.326,1.444-0.807,1.911c-0.666,0.609-1.742,0.893-3.299,0.893c-0.85,0-1.501-0.057-1.912-0.113V550.495z
			 M84.208,554.403h1.119c1.303,0,2.067-0.68,2.067-1.6c0-1.119-0.85-1.558-2.096-1.558c-0.566,0-0.892,0.042-1.09,0.085V554.403z
			 M84.208,558.978c0.241,0.043,0.595,0.057,1.034,0.057c1.274,0,2.45-0.467,2.45-1.855c0-1.303-1.119-1.84-2.464-1.84h-1.02
			V558.978z"/>
	</g>
	<g>
		<path fill="#392D19" d="M97.464,555.438h-3.71v3.44h4.135v1.034h-5.367v-9.544h5.154v1.033h-3.922v3.017h3.71V555.438z"/>
	</g>
	<g>
		<path fill="#392D19" d="M102.167,556.91l-0.991,3.002h-1.274l3.243-9.544h1.487l3.257,9.544h-1.317l-1.02-3.002H102.167z
			 M105.297,555.947l-0.935-2.747c-0.212-0.623-0.354-1.189-0.496-1.742h-0.028c-0.142,0.566-0.297,1.147-0.481,1.729l-0.935,2.761
			H105.297z"/>
	</g>
	<g>
		<path fill="#392D19" d="M112.536,551.416h-2.903v-1.048h7.066v1.048h-2.917v8.496h-1.246V551.416z"/>
	</g>
	<g>
		<path fill="#392D19" d="M127.378,555.721c-0.071-1.331-0.156-2.931-0.142-4.12h-0.042c-0.326,1.118-0.722,2.308-1.204,3.625
			l-1.685,4.63h-0.935l-1.543-4.546c-0.453-1.345-0.835-2.576-1.104-3.709h-0.028c-0.028,1.189-0.099,2.789-0.184,4.219
			l-0.255,4.093h-1.175l0.666-9.544h1.572l1.628,4.616c0.396,1.175,0.722,2.224,0.963,3.214h0.042
			c0.241-0.963,0.581-2.01,1.005-3.214l1.699-4.616h1.572l0.595,9.544h-1.204L127.378,555.721z"/>
	</g>
	<g>
		<path fill="#392D19" d="M134.264,556.91l-0.991,3.002h-1.274l3.243-9.544h1.487l3.257,9.544h-1.317l-1.02-3.002H134.264z
			 M137.394,555.947l-0.935-2.747c-0.212-0.623-0.354-1.189-0.496-1.742h-0.028c-0.142,0.566-0.297,1.147-0.481,1.729l-0.935,2.761
			H137.394z"/>
	</g>
	<g>
		<path fill="#392D19" d="M142.82,550.368h1.232v4.602h0.042c0.255-0.367,0.51-0.707,0.75-1.02l2.917-3.582h1.529l-3.455,4.05
			l3.724,5.494h-1.458l-3.144-4.687l-0.906,1.047v3.64h-1.232V550.368z"/>
	</g>
	<g>
		<path fill="#392D19" d="M157.96,555.438h-3.71v3.44h4.135v1.034h-5.367v-9.544h5.154v1.033h-3.922v3.017h3.71V555.438z"/>
	</g>
	<g>
		<path fill="#392D19" d="M161.12,550.495c0.623-0.127,1.515-0.197,2.365-0.197c1.317,0,2.167,0.24,2.761,0.778
			c0.481,0.425,0.75,1.076,0.75,1.813c0,1.261-0.793,2.096-1.798,2.436v0.042c0.736,0.256,1.175,0.936,1.402,1.926
			c0.312,1.332,0.538,2.252,0.736,2.62h-1.274c-0.156-0.269-0.368-1.091-0.637-2.28c-0.283-1.316-0.793-1.813-1.912-1.854h-1.161
			v4.135h-1.232V550.495z M162.352,554.843h1.26c1.317,0,2.152-0.723,2.152-1.813c0-1.232-0.892-1.77-2.195-1.784
			c-0.595,0-1.02,0.057-1.218,0.113V554.843z"/>
	</g>
	<g>
	</g>
	<g>
		<path fill="#392D19" d="M179.773,555.438h-3.71v3.44h4.135v1.034h-5.367v-9.544h5.154v1.033h-3.922v3.017h3.71V555.438z"/>
	</g>
	<g>
		<path fill="#392D19" d="M182.933,559.912v-9.544h1.345l3.059,4.828c0.708,1.119,1.26,2.125,1.713,3.102l0.028-0.014
			c-0.113-1.275-0.142-2.436-0.142-3.923v-3.993h1.161v9.544h-1.246l-3.03-4.843c-0.666-1.063-1.303-2.152-1.784-3.186l-0.042,0.014
			c0.071,1.203,0.099,2.351,0.099,3.937v4.078H182.933z"/>
	</g>
	<g>
		<path fill="#392D19" d="M195.766,551.416h-2.903v-1.048h7.066v1.048h-2.917v8.496h-1.246V551.416z"/>
	</g>
	<g>
		<path fill="#392D19" d="M207.507,555.438h-3.71v3.44h4.135v1.034h-5.367v-9.544h5.154v1.033h-3.922v3.017h3.71V555.438z"/>
	</g>
	<g>
		<path fill="#392D19" d="M210.667,550.495c0.623-0.127,1.515-0.197,2.365-0.197c1.317,0,2.167,0.24,2.761,0.778
			c0.481,0.425,0.75,1.076,0.75,1.813c0,1.261-0.793,2.096-1.798,2.436v0.042c0.736,0.256,1.175,0.936,1.402,1.926
			c0.312,1.332,0.538,2.252,0.736,2.62h-1.274c-0.156-0.269-0.368-1.091-0.637-2.28c-0.283-1.316-0.793-1.813-1.912-1.854h-1.161
			v4.135h-1.232V550.495z M211.898,554.843h1.26c1.317,0,2.152-0.723,2.152-1.813c0-1.232-0.892-1.77-2.195-1.784
			c-0.595,0-1.02,0.057-1.218,0.113V554.843z"/>
	</g>
	<g>
		<path fill="#392D19" d="M220.128,550.481c0.595-0.1,1.374-0.184,2.365-0.184c1.218,0,2.11,0.283,2.676,0.793
			c0.524,0.453,0.835,1.146,0.835,1.996c0,0.863-0.255,1.543-0.736,2.039c-0.651,0.693-1.713,1.048-2.917,1.048
			c-0.368,0-0.708-0.015-0.991-0.085v3.823h-1.232V550.481z M221.36,555.083c0.269,0.071,0.609,0.1,1.02,0.1
			c1.487,0,2.393-0.723,2.393-2.039c0-1.26-0.892-1.869-2.251-1.869c-0.538,0-0.949,0.043-1.161,0.1V555.083z"/>
	</g>
	<g>
		<path fill="#392D19" d="M229.165,550.495c0.623-0.127,1.515-0.197,2.365-0.197c1.317,0,2.167,0.24,2.761,0.778
			c0.481,0.425,0.75,1.076,0.75,1.813c0,1.261-0.793,2.096-1.798,2.436v0.042c0.736,0.256,1.175,0.936,1.402,1.926
			c0.312,1.332,0.538,2.252,0.736,2.62h-1.274c-0.156-0.269-0.368-1.091-0.637-2.28c-0.283-1.316-0.793-1.813-1.912-1.854h-1.161
			v4.135h-1.232V550.495z M230.397,554.843h1.26c1.317,0,2.152-0.723,2.152-1.813c0-1.232-0.892-1.77-2.195-1.784
			c-0.595,0-1.02,0.057-1.218,0.113V554.843z"/>
	</g>
	<g>
		<path fill="#392D19" d="M239.859,550.368v9.544h-1.232v-9.544H239.859z"/>
	</g>
	<g>
		<path fill="#392D19" d="M243.004,558.411c0.552,0.34,1.359,0.623,2.209,0.623c1.26,0,1.997-0.666,1.997-1.629
			c0-0.892-0.51-1.401-1.798-1.896c-1.558-0.553-2.521-1.359-2.521-2.705c0-1.486,1.232-2.592,3.087-2.592
			c0.977,0,1.685,0.227,2.11,0.468l-0.34,1.005c-0.312-0.17-0.949-0.453-1.813-0.453c-1.303,0-1.798,0.779-1.798,1.431
			c0,0.892,0.581,1.331,1.897,1.841c1.614,0.623,2.436,1.402,2.436,2.804c0,1.473-1.09,2.747-3.342,2.747
			c-0.92,0-1.926-0.27-2.436-0.609L243.004,558.411z"/>
	</g>
	<g>
		<path fill="#392D19" d="M257.28,555.438h-3.71v3.44h4.135v1.034h-5.367v-9.544h5.154v1.033h-3.922v3.017h3.71V555.438z"/>
	</g>
</g>
<polygon fill="#FF914D" points="841.92,544.294 841.92,595.5 627.022,595.5 "/>
<polygon fill="#5271FF" points="618.553,595.5 841.92,457.622 841.92,545.323 627.022,595.5 "/>
<polygon fill="#FF914D" points="0,0 269.96,0 0,66.815 "/>
<polygon fill="#7ED957" points="0,130.57 0,192.315 269.96,0 "/>
<polygon fill="#5271FF" points="0,63.908 0,131.037 269.96,0 "/>
<path fill="none" stroke="#000000" stroke-width="0.75" stroke-miterlimit="10" d="M190.96,457.75
	c0.029-0.547,0.003-1.031-0.024-1.642c-3.045,0.528-6.206,3.592-8.609,5.516c-2.483,1.988-5.319,6.813-9.004,6.987
	c-0.237-0.018-0.299,0.076-0.334,0.333c-0.359,1.897-3.001,4.261-4.321,5.635c-1.661,1.729-3.626,3.188-5.336,4.879
	c-3.396,3.354-6.044,8.017-9.838,11.158c-0.417,0.345-1.345,1.399-1.331,1.118c-0.352-0.641,2.206-4.609,3.294-6.285
	c1.324-2.039,2.406-4.045,3.671-6.19c1.131-1.917,2.523-3.648,3.792-5.383c1.366-1.869,2.202-3.698,3.412-5.589
	c1.755-2.743,4.422-4.98,4.271-8.513c-2.08-0.665-3.262,0.023-4.675,1.268c-1.483,1.305-3.485,2.02-5.088,3.25
	c-1.456,1.117-2.558,2.556-4.208,3.296c-1.26,0.565-3.448,1.833-4.813,1.804c-0.2-4.349,3.308-9.039,5.93-12.179
	c1.388-1.662,3.679-3.9,5.879-4.296c3.284-0.59,3.771,1.563,5.167,3.666c0.276,0.416,0.507,0.918,0.878,1.288
	c0.26,0.259,1.128,0.564,1.254,0.745c0.595,0.849,0.558,2.461,0.862,3.476c0.633,2.11,1.621,4.081,2.343,6.162
	c0.836,2.412,1.918,4.544,2.833,7c0.705,1.893,2.542,5.965,1.467,6.8c-0.877,0.353-3.122-3.508-4.012-4.592
	c-1.528-1.859-2.573-3.602-3.788-5.72c-2.464-4.296-4.648-8.879-6.958-13.371c-0.458-0.89-1.109-1.957-1.212-2.954"/>
</svg>
